<svg width="785" height="785" viewBox="0 0 785 785" fill="none" xmlns="http://www.w3.org/2000/svg">
<path d="M393.446 156.178C330.917 156.178 270.949 181.018 226.734 225.233C182.52 269.447 157.68 329.415 157.68 391.944C157.68 454.473 182.52 514.441 226.734 558.655C270.949 602.87 330.917 627.71 393.446 627.71L393.446 514.542C360.931 514.542 329.747 501.626 306.756 478.634C283.764 455.642 270.848 424.459 270.848 391.944C270.848 359.429 283.764 328.246 306.756 305.254C329.747 282.262 360.931 269.346 393.446 269.346V156.178Z" fill="#EFF5F9"/>
<path d="M500.475 602.263C546.735 578.692 583.921 540.511 606.262 493.645L504.107 444.948C492.49 469.319 473.154 489.173 449.099 501.43L500.475 602.263Z" fill="white"/>
<path d="M348.348 623.607C402.481 634.155 458.598 625.392 506.937 598.843L452.459 499.651C427.322 513.457 398.141 518.014 369.992 512.529L348.348 623.607Z" fill="white"/>
<path d="M393.44 156.428C433.283 156.428 472.477 166.526 507.36 185.778C542.243 205.03 571.679 232.808 592.917 266.519C614.156 300.23 626.505 338.773 628.81 378.549C631.116 418.326 623.304 458.038 606.103 493.977L504.025 445.121C512.969 426.433 517.032 405.783 515.833 385.099C514.634 364.415 508.212 344.372 497.168 326.843C486.124 309.313 470.818 294.869 452.679 284.858C434.539 274.847 414.159 269.596 393.44 269.596V156.428Z" fill="white"/>
<path d="M393.444 130.017C323.98 130.017 257.361 157.611 208.243 206.729C159.125 255.848 131.53 322.466 131.53 391.93C131.53 461.394 159.125 528.012 208.243 577.13C257.361 626.249 323.98 653.843 393.443 653.843V528.125C357.322 528.125 322.681 513.776 297.139 488.234C271.598 462.693 257.249 428.051 257.249 391.93C257.249 355.809 271.598 321.167 297.139 295.626C322.681 270.084 357.322 255.735 393.444 255.735V130.017Z" fill="#535353"/>
<path d="M652.591 514.798C626.714 569.761 584.108 615.126 530.875 644.397L458.142 512.119C483.453 498.201 503.711 476.631 516.015 450.497L652.591 514.798Z" fill="#BCB269"/>
<path d="M526.233 634.966C469.636 665.925 404.001 676.136 340.674 663.833L367.545 525.514C398.624 531.551 430.836 526.54 458.612 511.346L526.233 634.966Z" fill="#998463"/>
<path d="M393.441 89.6216C444.483 89.6216 494.695 102.533 539.405 127.155C584.116 151.777 621.871 187.309 649.158 230.444C676.445 273.58 692.377 322.917 695.471 373.865C698.566 424.812 688.722 475.715 666.856 521.836L516.36 450.485C526.19 429.75 530.615 406.866 529.224 383.961C527.833 361.057 520.671 338.877 508.403 319.484C496.136 300.092 479.162 284.118 459.062 273.049C438.962 261.98 416.388 256.175 393.441 256.175V89.6216Z" fill="url(#paint0_linear_1_2168)"/>
<circle cx="391.5" cy="391.5" r="96.5" fill="black" stroke="url(#paint1_linear_1_2168)" stroke-width="10"/>
<mask id="path-10-outside-1_1_2168" maskUnits="userSpaceOnUse" x="344.36" y="342.12" width="99" height="98" fill="black">
<rect fill="white" x="344.36" y="342.12" width="99" height="98"/>
<path d="M345.621 439.12V343.76H362.261L397.973 392.272H390.037L424.981 343.76H441.621V439.12H424.085V363.6L430.869 365.264L394.645 413.52H392.597L357.269 365.264L363.029 363.6V439.12H345.621Z"/>
</mask>
<path d="M345.621 439.12V343.76H362.261L397.973 392.272H390.037L424.981 343.76H441.621V439.12H424.085V363.6L430.869 365.264L394.645 413.52H392.597L357.269 365.264L363.029 363.6V439.12H345.621Z" fill="url(#paint2_linear_1_2168)"/>
<path d="M345.621 439.12H344.621V440.12H345.621V439.12ZM345.621 343.76V342.76H344.621V343.76H345.621ZM362.261 343.76L363.066 343.167L362.767 342.76H362.261V343.76ZM397.973 392.272V393.272H399.951L398.778 391.679L397.973 392.272ZM390.037 392.272L389.226 391.688L388.084 393.272H390.037V392.272ZM424.981 343.76V342.76H424.469L424.17 343.176L424.981 343.76ZM441.621 343.76H442.621V342.76H441.621V343.76ZM441.621 439.12V440.12H442.621V439.12H441.621ZM424.085 439.12H423.085V440.12H424.085V439.12ZM424.085 363.6L424.323 362.629L423.085 362.325V363.6H424.085ZM430.869 365.264L431.669 365.864L432.578 364.654L431.107 364.293L430.869 365.264ZM394.645 413.52V414.52H395.145L395.445 414.12L394.645 413.52ZM392.597 413.52L391.79 414.111L392.09 414.52H392.597V413.52ZM357.269 365.264L356.991 364.303L355.617 364.7L356.462 365.855L357.269 365.264ZM363.029 363.6H364.029V362.27L362.751 362.639L363.029 363.6ZM363.029 439.12V440.12H364.029V439.12H363.029ZM345.621 439.12H346.621V343.76H345.621H344.621V439.12H345.621ZM345.621 343.76V344.76H362.261V343.76V342.76H345.621V343.76ZM362.261 343.76L361.456 344.353L397.168 392.865L397.973 392.272L398.778 391.679L363.066 343.167L362.261 343.76ZM397.973 392.272V391.272H390.037V392.272V393.272H397.973V392.272ZM390.037 392.272L390.848 392.857L425.792 344.345L424.981 343.76L424.17 343.176L389.226 391.688L390.037 392.272ZM424.981 343.76V344.76H441.621V343.76V342.76H424.981V343.76ZM441.621 343.76H440.621V439.12H441.621H442.621V343.76H441.621ZM441.621 439.12V438.12H424.085V439.12V440.12H441.621V439.12ZM424.085 439.12H425.085V363.6H424.085H423.085V439.12H424.085ZM424.085 363.6L423.847 364.571L430.631 366.235L430.869 365.264L431.107 364.293L424.323 362.629L424.085 363.6ZM430.869 365.264L430.069 364.664L393.845 412.92L394.645 413.52L395.445 414.12L431.669 365.864L430.869 365.264ZM394.645 413.52V412.52H392.597V413.52V414.52H394.645V413.52ZM392.597 413.52L393.404 412.929L358.076 364.673L357.269 365.264L356.462 365.855L391.79 414.111L392.597 413.52ZM357.269 365.264L357.547 366.225L363.307 364.561L363.029 363.6L362.751 362.639L356.991 364.303L357.269 365.264ZM363.029 363.6H362.029V439.12H363.029H364.029V363.6H363.029ZM363.029 439.12V438.12H345.621V439.12V440.12H363.029V439.12Z" fill="#898448" mask="url(#path-10-outside-1_1_2168)"/>
<defs>
<linearGradient id="paint0_linear_1_2168" x1="393.441" y1="89.6216" x2="393.441" y2="694.795" gradientUnits="userSpaceOnUse">
<stop stop-color="#E3D7AE"/>
<stop offset="1" stop-color="#E3E354"/>
</linearGradient>
<linearGradient id="paint1_linear_1_2168" x1="391.5" y1="290" x2="391.5" y2="493" gradientUnits="userSpaceOnUse">
<stop stop-color="#E3D7AE"/>
<stop offset="1" stop-color="#E3E354"/>
</linearGradient>
<linearGradient id="paint2_linear_1_2168" x1="393.53" y1="298.12" x2="393.53" y2="484.88" gradientUnits="userSpaceOnUse">
<stop stop-color="#E3D7AE"/>
<stop offset="1" stop-color="#E3E354"/>
</linearGradient>
</defs>
</svg>
