<svg width="298" height="594" viewBox="0 0 298 594" fill="none" xmlns="http://www.w3.org/2000/svg">
<path d="M126.366 67.4101C117.974 92.2033 123.21 123.887 131.122 157.059C138.75 188.995 147.522 221.961 143.979 248.939C136.678 304.562 87.1166 325.469 35.2322 331.438C-22.7621 338.098 -90.4344 330.055 -138.153 353.512C-161.556 365.02 -178.805 385.768 -177.934 418.831C-177.208 446.228 -162.253 476.859 -140.353 506.618C-127.907 523.526 -114.129 539.633 -100.204 555.657L-104.214 559.356C-108.161 554.817 -112.107 550.278 -115.979 545.723C-138.535 519.268 -161.054 490.936 -174.136 461.651C-188.988 428.385 -188.698 398.287 -178.053 377.643C-165.076 352.443 -138.487 340.536 -109.581 334.376C-81.7287 328.44 -50.7957 327.762 -20.2275 326.672C38.1279 324.597 100.388 319.67 126.563 273.716C132.686 262.963 136.427 250.13 136.985 235.342C137.547 220.737 134.996 204.593 131.451 188.136C124.52 155.931 113.803 121.978 113.957 92.6747C114.106 62.3591 125.777 38.3099 146.486 25.4098C146.511 25.3874 146.548 25.3794 146.581 25.3495L153.335 32.6721C140.729 40.3962 131.515 52.236 126.366 67.4101Z" fill="url(#paint0_linear_0_330)"/>
<path d="M181.17 212.504C166.221 274.059 101.059 289.04 49.0236 290.765C22.2407 291.651 -6.35142 289.796 -34.0127 287.991C-69.8231 285.657 -106.849 283.241 -140.179 286.798C-172.711 290.261 -248.014 306.925 -244.65 386.417C-242.707 432.151 -214.129 493.466 -159.707 568.66C-154.594 575.732 -149.319 582.815 -144.029 589.884L-144.855 590.646C-150.231 583.469 -155.582 576.269 -160.78 569.089C-215.522 493.468 -244.266 431.744 -246.209 385.637C-249.601 305.448 -173.83 288.674 -141.096 285.186C-107.678 281.627 -70.6066 284.028 -34.7451 286.368C-7.10534 288.166 21.4572 290.022 48.1811 289.136C99.9727 287.422 164.814 272.55 179.642 211.401C184.93 189.631 183.517 163.001 182.165 137.251C181.603 126.516 181.045 115.67 180.955 105.088L182.513 106.778C182.624 117.074 183.176 127.604 183.724 138.032C185.097 163.869 186.496 190.565 181.17 212.504Z" fill="url(#paint1_linear_0_330)"/>
<defs>
<linearGradient id="paint0_linear_0_330" x1="-54.9985" y1="209.756" x2="96.609" y2="374.129" gradientUnits="userSpaceOnUse">
<stop stop-color="#E3D7AE"/>
<stop offset="1" stop-color="#E3E354"/>
</linearGradient>
<linearGradient id="paint1_linear_0_330" x1="-106.983" y1="212.307" x2="64.1617" y2="397.862" gradientUnits="userSpaceOnUse">
<stop stop-color="#E3D7AE"/>
<stop offset="1" stop-color="#E3E354"/>
</linearGradient>
</defs>
</svg>
