<svg width="388" height="388" viewBox="0 0 388 388" fill="none" xmlns="http://www.w3.org/2000/svg">
<circle cx="193.8" cy="193.8" r="188.8" fill="black" stroke="url(#paint0_linear_5_169)" stroke-width="10"/>
<mask id="path-2-outside-1_5_169" maskUnits="userSpaceOnUse" x="81" y="81" width="227" height="225" fill="black">
<rect fill="white" x="81" y="81" width="227" height="225"/>
<path d="M89.363 298V89.4H125.763L203.883 195.52H186.523L262.963 89.4H299.363V298H261.003V132.8L275.843 136.44L196.603 242H192.123L114.843 136.44L127.443 132.8V298H89.363Z"/>
</mask>
<path d="M89.363 298V89.4H125.763L203.883 195.52H186.523L262.963 89.4H299.363V298H261.003V132.8L275.843 136.44L196.603 242H192.123L114.843 136.44L127.443 132.8V298H89.363Z" fill="url(#paint1_linear_5_169)"/>
<path d="M89.363 298H81.363V306H89.363V298ZM89.363 89.4V81.4H81.363V89.4H89.363ZM125.763 89.4L132.206 84.6573L129.808 81.4H125.763V89.4ZM203.883 195.52V203.52H219.706L210.326 190.777L203.883 195.52ZM186.523 195.52L180.032 190.844L170.901 203.52H186.523V195.52ZM262.963 89.4V81.4H258.866L256.472 84.7242L262.963 89.4ZM299.363 89.4H307.363V81.4H299.363V89.4ZM299.363 298V306H307.363V298H299.363ZM261.003 298H253.003V306H261.003V298ZM261.003 132.8L262.909 125.03L253.003 122.601V132.8H261.003ZM275.843 136.44L282.241 141.243L289.513 131.556L277.749 128.67L275.843 136.44ZM196.603 242V250H200.601L203.001 246.803L196.603 242ZM192.123 242L185.668 246.726L188.065 250H192.123V242ZM114.843 136.44L112.623 128.754L101.627 131.931L108.388 141.166L114.843 136.44ZM127.443 132.8H135.443V122.162L125.223 125.114L127.443 132.8ZM127.443 298V306H135.443V298H127.443ZM89.363 298H97.363V89.4H89.363H81.363V298H89.363ZM89.363 89.4V97.4H125.763V89.4V81.4H89.363V89.4ZM125.763 89.4L119.32 94.1427L197.44 200.263L203.883 195.52L210.326 190.777L132.206 84.6573L125.763 89.4ZM203.883 195.52V187.52H186.523V195.52V203.52H203.883V195.52ZM186.523 195.52L193.014 200.196L269.454 94.0758L262.963 89.4L256.472 84.7242L180.032 190.844L186.523 195.52ZM262.963 89.4V97.4H299.363V89.4V81.4H262.963V89.4ZM299.363 89.4H291.363V298H299.363H307.363V89.4H299.363ZM299.363 298V290H261.003V298V306H299.363V298ZM261.003 298H269.003V132.8H261.003H253.003V298H261.003ZM261.003 132.8L259.097 140.57L273.937 144.21L275.843 136.44L277.749 128.67L262.909 125.03L261.003 132.8ZM275.843 136.44L269.445 131.637L190.205 237.197L196.603 242L203.001 246.803L282.241 141.243L275.843 136.44ZM196.603 242V234H192.123V242V250H196.603V242ZM192.123 242L198.578 237.274L121.298 131.714L114.843 136.44L108.388 141.166L185.668 246.726L192.123 242ZM114.843 136.44L117.063 144.126L129.663 140.486L127.443 132.8L125.223 125.114L112.623 128.754L114.843 136.44ZM127.443 132.8H119.443V298H127.443H135.443V132.8H127.443ZM127.443 298V290H89.363V298V306H127.443V298Z" fill="#898448" mask="url(#path-2-outside-1_5_169)"/>
<defs>
<linearGradient id="paint0_linear_5_169" x1="193.8" y1="0" x2="193.8" y2="387.6" gradientUnits="userSpaceOnUse">
<stop stop-color="#E3D7AE"/>
<stop offset="1" stop-color="#E3E354"/>
</linearGradient>
<linearGradient id="paint1_linear_5_169" x1="194.164" y1="16" x2="194.164" y2="372.592" gradientUnits="userSpaceOnUse">
<stop stop-color="#E3D7AE"/>
<stop offset="1" stop-color="#E3E354"/>
</linearGradient>
</defs>
</svg>
