<svg width="253" height="594" viewBox="0 0 253 594" fill="none" xmlns="http://www.w3.org/2000/svg">
<path d="M171.066 67.4101C179.458 92.2033 174.222 123.887 166.31 157.059C158.682 188.995 149.91 221.961 153.453 248.939C160.754 304.562 210.315 325.469 262.2 331.438C320.194 338.098 387.866 330.055 435.585 353.512C458.988 365.02 476.237 385.768 475.366 418.831C474.64 446.228 459.685 476.859 437.785 506.618C425.339 523.526 411.561 539.633 397.636 555.657L401.646 559.356C405.593 554.817 409.539 550.278 413.411 545.723C435.967 519.268 458.486 490.936 471.568 461.651C486.419 428.385 486.129 398.287 475.485 377.643C462.508 352.443 435.919 340.536 407.013 334.376C379.161 328.44 348.228 327.762 317.659 326.672C259.304 324.597 197.044 319.67 170.869 273.716C164.745 262.963 161.005 250.13 160.447 235.342C159.885 220.737 162.436 204.593 165.981 188.136C172.912 155.931 183.629 121.978 183.475 92.6747C183.326 62.3591 171.655 38.3099 150.945 25.4098C150.921 25.3874 150.884 25.3794 150.851 25.3495L144.097 32.6721C156.703 40.3962 165.917 52.236 171.066 67.4101Z" fill="url(#paint0_linear_0_326)"/>
<path d="M116.262 212.504C131.211 274.059 196.372 289.04 248.408 290.765C275.191 291.651 303.783 289.796 331.445 287.991C367.255 285.657 404.281 283.241 437.611 286.798C470.143 290.261 545.446 306.925 542.082 386.417C540.139 432.151 511.561 493.466 457.139 568.66C452.026 575.732 446.751 582.815 441.461 589.884L442.287 590.646C447.663 583.469 453.014 576.269 458.212 569.089C512.954 493.468 541.698 431.744 543.641 385.637C547.033 305.448 471.262 288.674 438.528 285.186C405.11 281.627 368.039 284.028 332.177 286.368C304.537 288.166 275.975 290.022 249.251 289.136C197.459 287.422 132.618 272.55 117.79 211.401C112.502 189.631 113.915 163.001 115.267 137.251C115.829 126.516 116.387 115.67 116.477 105.088L114.919 106.778C114.808 117.074 114.255 127.604 113.708 138.032C112.335 163.869 110.936 190.565 116.262 212.504Z" fill="url(#paint1_linear_0_326)"/>
<defs>
<linearGradient id="paint0_linear_0_326" x1="352.43" y1="209.756" x2="200.823" y2="374.129" gradientUnits="userSpaceOnUse">
<stop stop-color="#E3D7AE"/>
<stop offset="1" stop-color="#E3E354"/>
</linearGradient>
<linearGradient id="paint1_linear_0_326" x1="404.415" y1="212.307" x2="233.27" y2="397.862" gradientUnits="userSpaceOnUse">
<stop stop-color="#E3D7AE"/>
<stop offset="1" stop-color="#E3E354"/>
</linearGradient>
</defs>
</svg>
