<svg width="50" height="50" viewBox="0 0 50 50" fill="none" xmlns="http://www.w3.org/2000/svg">
<circle cx="25" cy="25" r="23.5" fill="black" stroke="url(#paint0_linear_5_143)" stroke-width="3"/>
<mask id="path-2-outside-1_5_143" maskUnits="userSpaceOnUse" x="13" y="12" width="25" height="25" fill="black">
<rect fill="white" x="13" y="12" width="25" height="25"/>
<path d="M14.2713 36V13.65H18.1713L26.5413 25.02H24.6813L32.8713 13.65H36.7713V36H32.6613V18.3L34.2513 18.69L25.7613 30H25.2813L17.0013 18.69L18.3513 18.3V36H14.2713Z"/>
</mask>
<path d="M14.2713 36V13.65H18.1713L26.5413 25.02H24.6813L32.8713 13.65H36.7713V36H32.6613V18.3L34.2513 18.69L25.7613 30H25.2813L17.0013 18.69L18.3513 18.3V36H14.2713Z" fill="url(#paint1_linear_5_143)"/>
<path d="M14.2713 36H13.2713V37H14.2713V36ZM14.2713 13.65V12.65H13.2713V13.65H14.2713ZM18.1713 13.65L18.9767 13.0572L18.6769 12.65H18.1713V13.65ZM26.5413 25.02V26.02H28.5192L27.3467 24.4272L26.5413 25.02ZM24.6813 25.02L23.8699 24.4355L22.7286 26.02H24.6813V25.02ZM32.8713 13.65V12.65H32.3592L32.0599 13.0655L32.8713 13.65ZM36.7713 13.65H37.7713V12.65H36.7713V13.65ZM36.7713 36V37H37.7713V36H36.7713ZM32.6613 36H31.6613V37H32.6613V36ZM32.6613 18.3L32.8996 17.3288L31.6613 17.0251V18.3H32.6613ZM34.2513 18.69L35.0511 19.2903L35.96 18.0795L34.4896 17.7188L34.2513 18.69ZM25.7613 30V31H26.2611L26.5611 30.6003L25.7613 30ZM25.2813 30L24.4744 30.5907L24.7741 31H25.2813V30ZM17.0013 18.69L16.7238 17.7293L15.3493 18.1263L16.1944 19.2807L17.0013 18.69ZM18.3513 18.3H19.3513V16.9702L18.0738 17.3393L18.3513 18.3ZM18.3513 36V37H19.3513V36H18.3513ZM14.2713 36H15.2713V13.65H14.2713H13.2713V36H14.2713ZM14.2713 13.65V14.65H18.1713V13.65V12.65H14.2713V13.65ZM18.1713 13.65L17.366 14.2428L25.736 25.6128L26.5413 25.02L27.3467 24.4272L18.9767 13.0572L18.1713 13.65ZM26.5413 25.02V24.02H24.6813V25.02V26.02H26.5413V25.02ZM24.6813 25.02L25.4927 25.6045L33.6827 14.2345L32.8713 13.65L32.0599 13.0655L23.8699 24.4355L24.6813 25.02ZM32.8713 13.65V14.65H36.7713V13.65V12.65H32.8713V13.65ZM36.7713 13.65H35.7713V36H36.7713H37.7713V13.65H36.7713ZM36.7713 36V35H32.6613V36V37H36.7713V36ZM32.6613 36H33.6613V18.3H32.6613H31.6613V36H32.6613ZM32.6613 18.3L32.4231 19.2712L34.0131 19.6612L34.2513 18.69L34.4896 17.7188L32.8996 17.3288L32.6613 18.3ZM34.2513 18.69L33.4516 18.0897L24.9616 29.3997L25.7613 30L26.5611 30.6003L35.0511 19.2903L34.2513 18.69ZM25.7613 30V29H25.2813V30V31H25.7613V30ZM25.2813 30L26.0882 29.4093L17.8082 18.0993L17.0013 18.69L16.1944 19.2807L24.4744 30.5907L25.2813 30ZM17.0013 18.69L17.2789 19.6507L18.6289 19.2607L18.3513 18.3L18.0738 17.3393L16.7238 17.7293L17.0013 18.69ZM18.3513 18.3H17.3513V36H18.3513H19.3513V18.3H18.3513ZM18.3513 36V35H14.2713V36V37H18.3513V36Z" fill="#898448" mask="url(#path-2-outside-1_5_143)"/>
<defs>
<linearGradient id="paint0_linear_5_143" x1="25" y1="0" x2="25" y2="50" gradientUnits="userSpaceOnUse">
<stop stop-color="#E3D7AE"/>
<stop offset="1" stop-color="#E3E354"/>
</linearGradient>
<linearGradient id="paint1_linear_5_143" x1="25.5" y1="2" x2="25.5" y2="48" gradientUnits="userSpaceOnUse">
<stop stop-color="#E3D7AE"/>
<stop offset="1" stop-color="#E3E354"/>
</linearGradient>
</defs>
</svg>
